<svg width="577" height="65" viewBox="0 0 577 65" fill="none" xmlns="http://www.w3.org/2000/svg">
<g opacity="0.5">
<path d="M56.0258 0.153931H19.2151C8.57896 0.153931 0 8.77664 0 19.369V45.2372C0 55.8733 8.62273 64.4523 19.2151 64.4523H56.0258V51.7589H21.4036C17.333 51.7589 14.0064 48.4324 14.0064 44.3618V20.2007C14.0064 16.13 17.333 12.8035 21.4036 12.8035H56.0258V0.153931Z" fill="white"/>
<path d="M130.96 19.5003V45.1496C130.96 55.8295 122.294 64.496 111.614 64.496H83.6447C72.9648 64.496 64.2984 55.8295 64.2984 45.1496V19.5003C64.2984 8.82042 72.9648 0.153931 83.6447 0.153931H111.614C122.294 0.153931 130.96 8.82042 130.96 19.5003ZM109.6 12.8473H85.7019C81.6751 12.8473 78.4361 16.0863 78.4361 20.1131V44.5368C78.4361 48.5637 81.6751 51.8027 85.7019 51.8027H109.6C113.627 51.8027 116.866 48.5637 116.866 44.5368V20.1131C116.866 16.0863 113.584 12.8473 109.6 12.8473Z" fill="white"/>
<path d="M140.502 0.153931H154.509V25.9783H193.026V0.153931H207.033V64.496H193.026V38.6716H154.509V64.496H140.502V0.153931Z" fill="white"/>
<path d="M216.75 0.153931H283.193V12.8473H230.669V25.9783H280.567V38.6716H230.669V51.8027H283.193V64.496H216.75V0.153931Z" fill="white"/>
<path d="M333.397 0.153931C359.397 0.153931 359.353 15.1671 359.353 19.6316C359.353 23.9649 359.353 38.6716 333.397 38.6716L359.353 64.6273H339.35L313.394 38.6716H306.829V64.496H293.26V0.153931C306.654 0.153931 320.003 0.153931 333.397 0.153931ZM306.829 12.8473V25.9783H339.262C342.895 25.9783 345.828 23.0457 345.828 19.4128C345.828 15.7799 342.895 12.8473 339.262 12.8473H306.829Z" fill="white"/>
<path d="M369.42 0.153931H435.863V12.8473H383.339V25.9783H433.237V38.6716H383.339V51.8027H435.863V64.496H369.42V0.153931Z" fill="white"/>
<path d="M445.58 0.153931V64.496H459.149V18.5374L494.165 64.496H511.717V0.153931H498.104V46.1126L462.65 0.153931H445.58Z" fill="white"/>
<path d="M576.015 0.153931V12.8473H555.443V64.496H541.437V12.8473H520.427V0.153931H576.015Z" fill="white"/>
</g>
</svg>
