<svg width="1167" height="1167" viewBox="0 0 1167 1167" fill="none" xmlns="http://www.w3.org/2000/svg">
<path opacity="0.7" d="M1167 533.674C1141.58 234.716 890.787 0 584.755 0C261.775 0 0 261.039 0 583.5C0 905.96 261.775 1167 584.442 1167C890.159 1167 1140.95 932.597 1166.69 634.266H706.226L933.788 861.462L862.852 931.657L633.721 702.895V1025.67H533.279V702.895L304.462 931.344L235.409 862.402L464.54 633.953H138.107V533.674H464.54L235.409 304.912L304.462 235.97L533.593 464.732V138.824H634.034V464.732L863.166 235.97L932.219 304.912L703.088 533.674H1167Z" fill="white"/>
</svg>
