<svg width="33" height="34" viewBox="0 0 33 34" fill="none" xmlns="http://www.w3.org/2000/svg">
<path d="M23.4466 33.062H10.1018C4.91636 33.062 0.691895 28.8374 0.691895 23.652V10.3225C0.691895 5.13714 4.91636 0.912598 10.1018 0.912598H23.4466C28.632 0.912598 32.8567 5.13714 32.8567 10.3225V23.652C32.8567 28.8374 28.632 33.062 23.4466 33.062ZM10.1018 3.74929C6.47199 3.74929 3.5286 6.69276 3.5286 10.3225V23.652C3.5286 27.2818 6.47199 30.2254 10.1018 30.2254H23.4466C27.0764 30.2254 30.02 27.2818 30.02 23.652V10.3225C30.02 6.69276 27.0764 3.74929 23.4466 3.74929H10.1018Z" fill="#CA003D"/>
<path d="M16.7816 25.0254C12.3435 25.0254 8.74438 21.4261 8.74438 16.988C8.74438 12.5499 12.3588 8.95068 16.7816 8.95068C21.2197 8.95068 24.819 12.5499 24.819 16.988C24.819 21.4261 21.2197 25.0254 16.7816 25.0254ZM16.7816 11.7874C13.9144 11.7874 11.5811 14.1208 11.5811 16.988C11.5811 19.8552 13.9144 22.1887 16.7816 22.1887C19.6488 22.1887 21.9823 19.8552 21.9823 16.988C21.9823 14.1208 19.6488 11.7874 16.7816 11.7874Z" fill="#CA003D"/>
<path d="M25.292 9.89627C26.0753 9.89627 26.7102 9.26126 26.7102 8.47792C26.7102 7.69458 26.0753 7.05957 25.292 7.05957C24.5086 7.05957 23.8735 7.69458 23.8735 8.47792C23.8735 9.26126 24.5086 9.89627 25.292 9.89627Z" fill="#CA003D"/>
</svg>
