<svg width="771" height="163" viewBox="0 0 771 163" fill="none" xmlns="http://www.w3.org/2000/svg">
<g opacity="0.5">
<path d="M162.737 74.5405C159.192 32.7838 124.22 0 81.5438 0C36.5043 0 0 36.4605 0 81.5C0 126.539 36.5043 163 81.5 163C124.132 163 159.104 130.26 162.694 88.5908H98.4828L130.216 120.324L120.324 130.129L88.3719 98.1764V143.26H74.3655V98.1764L42.457 130.085L32.8276 120.455L64.7798 88.547H19.2589V74.5405H64.7798L32.8276 42.5883L42.457 32.9589L74.4092 64.9111V19.3902H88.4157V64.9111L120.368 32.9589L129.997 42.5883L98.0451 74.5405H162.737Z" fill="white"/>
<path d="M250.803 49.1539H213.992C203.356 49.1539 194.777 57.7766 194.777 68.369V94.2372C194.777 104.873 203.4 113.452 213.992 113.452H250.803V100.759H216.181C212.11 100.759 208.784 97.4324 208.784 93.3618V69.2007C208.784 65.13 212.11 61.8035 216.181 61.8035H250.803V49.1539Z" fill="white"/>
<path d="M325.737 68.5003V94.1496C325.737 104.83 317.071 113.496 306.391 113.496H278.422C267.742 113.496 259.075 104.83 259.075 94.1496V68.5003C259.075 57.8204 267.742 49.1539 278.422 49.1539H306.391C317.071 49.1539 325.737 57.8204 325.737 68.5003ZM304.378 61.8473H280.479C276.452 61.8473 273.213 65.0863 273.213 69.1131V93.5368C273.213 97.5637 276.452 100.803 280.479 100.803H304.378C308.404 100.803 311.643 97.5637 311.643 93.5368V69.1131C311.643 65.0863 308.361 61.8473 304.378 61.8473Z" fill="white"/>
<path d="M335.279 49.1539H349.286V74.9783H387.803V49.1539H401.81V113.496H387.803V87.6716H349.286V113.496H335.279V49.1539Z" fill="white"/>
<path d="M411.527 49.1539H477.97V61.8473H425.446V74.9783H475.344V87.6716H425.446V100.803H477.97V113.496H411.527V49.1539Z" fill="white"/>
<path d="M528.174 49.1539C554.174 49.1539 554.13 64.1671 554.13 68.6316C554.13 72.9649 554.13 87.6716 528.174 87.6716L554.13 113.627H534.127L508.171 87.6716H501.606V113.496H488.037V49.1539C501.431 49.1539 514.781 49.1539 528.174 49.1539ZM501.606 61.8473V74.9783H534.039C537.672 74.9783 540.605 72.0457 540.605 68.4128C540.605 64.7799 537.672 61.8473 534.039 61.8473H501.606Z" fill="white"/>
<path d="M564.197 49.1539H630.64V61.8473H578.116V74.9783H628.014V87.6716H578.116V100.803H630.64V113.496H564.197V49.1539Z" fill="white"/>
<path d="M640.357 49.1539V113.496H653.926V67.5374L688.942 113.496H706.494V49.1539H692.881V95.1126L657.427 49.1539H640.357Z" fill="white"/>
<path d="M770.792 49.1539V61.8473H750.22V113.496H736.214V61.8473H715.204V49.1539H770.792Z" fill="white"/>
</g>
</svg>
