<svg width="257" height="53" viewBox="0 0 257 53" fill="none" xmlns="http://www.w3.org/2000/svg">
<path d="M78.8645 30.563H86.3807C85.9809 32.442 83.5421 33.0017 79.5441 33.0017C73.4273 33.0017 72.3478 29.9633 72.3478 26.565C72.3478 23.2067 73.3873 20.608 79.5441 20.608C83.9419 20.608 85.9809 21.9274 86.3807 23.3666H97.0152C96.5755 15.7305 90.7384 11.8125 79.5441 11.8125C68.03 11.8125 61.9531 16.4502 61.9531 26.1652C61.9531 35.9202 68.03 40.5978 78.3448 40.5978C84.2218 40.5978 87.8999 38.9187 90.2587 36.1601L91.0183 40.198H97.0152V24.9658H78.8645V30.563Z" fill="black"/>
<path d="M114.225 15.8105C109.787 15.8105 104.59 16.69 99.7923 18.2492L102.911 25.0458C107.308 24.0863 110.827 23.8064 113.905 23.8064C117.103 23.8064 120.142 23.9263 120.142 26.8049C117.943 26.0053 115.384 25.5655 112.026 25.5655C105.03 25.5655 97.8333 27.2047 97.8333 33.4415C97.8333 38.6388 102.631 40.5978 108.108 40.5978C112.266 40.5978 116.424 39.9981 120.142 37.2795V40.198H129.737V28.3241C129.657 19.1688 124.06 15.8105 114.225 15.8105ZM120.142 32.362C117.743 33.4015 114.225 34.2011 110.987 34.2011C108.548 34.2011 107.428 34.0012 107.428 32.6819C107.428 31.1626 109.347 30.7629 113.785 30.7629C116.544 30.7629 118.623 30.9627 120.142 31.3625V32.362Z" fill="black"/>
<path d="M149.861 15.8105C145.943 15.8105 142.665 17.0498 140.546 20.2082V16.2103H130.951V40.198H140.546V27.2446C143.304 24.2062 147.023 23.8064 150.421 23.8064C152.18 23.8064 153.979 24.0463 156.218 24.606V16.6101C154.619 16.2103 152.66 15.8105 149.861 15.8105Z" fill="black"/>
<path d="M181.05 16.2103L174.373 32.8818L167.417 16.2103H157.022L167.017 40.198H171.414L167.417 50.1929H177.811L191.444 16.2103H181.05Z" fill="black"/>
<path d="M190.247 31.9223C190.247 39.4384 198.243 40.5978 207.318 40.5978C216.394 40.5978 222.79 39.4384 222.79 32.1222C222.79 25.8454 216.754 25.2856 207.318 24.8059C201.241 24.4861 200.242 24.526 200.242 23.5265C200.242 22.607 201.641 22.607 206.519 22.607C210.797 22.607 212.396 22.607 212.396 23.8864H221.991C221.991 16.9699 215.794 15.8105 206.919 15.8105C198.043 15.8105 190.647 16.9699 190.647 23.8064C190.647 29.9233 195.484 30.7628 206.519 31.2026C212.276 31.4425 213.195 31.3226 213.195 32.522C213.195 33.5614 212.276 33.8013 206.919 33.8013C201.121 33.8013 199.842 33.2816 199.842 31.9223H190.247Z" fill="black"/>
<path d="M245.178 15.8105C240.141 15.8105 236.463 17.4097 233.584 19.4086V8.21436H223.989V40.198H233.584V27.2446C235.463 25.4456 238.462 24.2062 241.3 24.2062C245.618 24.2062 247.097 25.9653 247.097 30.0832V40.198H256.693V26.1652C256.693 17.4896 250.576 15.8105 245.178 15.8105Z" fill="black"/>
<path d="M37.4634 33.4784C38.2777 32.1807 38.8629 30.7303 39.1937 29.2036H52.0434C51.8653 30.6794 51.5854 32.1043 51.1783 33.4784H37.4634Z" fill="url(#paint0_linear)"/>
<path d="M26.115 39.5089C18.7614 39.5089 12.8073 33.5547 12.8073 26.2012C12.8073 18.8476 18.7614 12.8934 26.115 12.8934H48.5575C44.0282 5.23449 35.6823 0.0946045 26.115 0.0946045C11.7386 0.0946045 0.0593262 11.7484 0.0593262 26.1503C0.0593262 40.5521 11.7131 52.1805 26.115 52.1805C35.6314 52.1805 43.9519 47.0915 48.4811 39.4834" fill="url(#paint1_linear)"/>
<path d="M26.115 33.8092C30.3449 33.8092 33.7739 30.3802 33.7739 26.1503C33.7739 21.9204 30.3449 18.4913 26.115 18.4913C21.8851 18.4913 18.4561 21.9204 18.4561 26.1503C18.4561 30.3802 21.8851 33.8092 26.115 33.8092Z" fill="url(#paint2_linear)"/>
<path d="M37.1581 18.8984C38.0233 20.1961 38.6848 21.6211 39.092 23.1986H52.0689C51.8908 21.7228 51.6109 20.2979 51.2038 18.8984C51.2038 18.8984 37.1581 18.8984 37.1581 18.8984Z" fill="url(#paint3_linear)"/>
<defs>
<linearGradient id="paint0_linear" x1="37.4515" y1="31.3359" x2="52.0352" y2="31.3359" gradientUnits="userSpaceOnUse">
<stop stop-color="#FF3376"/>
<stop offset="1" stop-color="#3388FF"/>
</linearGradient>
<linearGradient id="paint1_linear" x1="0.0549242" y1="26.1424" x2="48.5376" y2="26.1424" gradientUnits="userSpaceOnUse">
<stop stop-color="#0047BB"/>
<stop offset="1" stop-color="#981E97"/>
</linearGradient>
<linearGradient id="paint2_linear" x1="18.452" y1="26.1424" x2="33.7555" y2="26.1424" gradientUnits="userSpaceOnUse">
<stop stop-color="#FF3376"/>
<stop offset="1" stop-color="#3388FF"/>
</linearGradient>
<linearGradient id="paint3_linear" x1="37.1457" y1="21.0431" x2="52.0468" y2="21.0431" gradientUnits="userSpaceOnUse">
<stop stop-color="#FF3376"/>
<stop offset="1" stop-color="#3388FF"/>
</linearGradient>
</defs>
</svg>
