<svg width="117" height="25" viewBox="0 0 117 25" fill="none" xmlns="http://www.w3.org/2000/svg">
<path d="M35.9275 14.3905H39.3542C39.1719 15.2471 38.0601 15.5023 36.2374 15.5023C33.4487 15.5023 32.9566 14.1171 32.9566 12.5678C32.9566 11.0367 33.4305 9.85198 36.2374 9.85198C38.2424 9.85198 39.1719 10.4535 39.3542 11.1096H44.2025C44.002 7.62831 41.3409 5.84208 36.2374 5.84208C30.9881 5.84208 28.2176 7.95639 28.2176 12.3855C28.2176 16.8329 30.9881 18.9654 35.6906 18.9654C38.3699 18.9654 40.0468 18.1999 41.1222 16.9422L41.4685 18.7831H44.2025V11.8387H35.9275V14.3905Z" fill="#959DA8"/>
<path d="M52.0485 7.66476C50.0253 7.66476 47.6558 8.06575 45.4686 8.7766L46.8903 11.8752C48.8952 11.4377 50.4992 11.3101 51.9027 11.3101C53.3608 11.3101 54.746 11.3648 54.746 12.6771C53.7436 12.3126 52.5771 12.1121 51.046 12.1121C47.8563 12.1121 44.5755 12.8594 44.5755 15.7028C44.5755 18.0723 46.7627 18.9654 49.2598 18.9654C51.1554 18.9654 53.051 18.692 54.746 17.4526V18.7831H59.1205V13.3698C59.084 9.19582 56.5323 7.66476 52.0485 7.66476ZM54.746 15.2107C53.6524 15.6846 52.0485 16.0491 50.5721 16.0491C49.4603 16.0491 48.9499 15.958 48.9499 15.3565C48.9499 14.6639 49.8248 14.4816 51.848 14.4816C53.1056 14.4816 54.0534 14.5727 54.746 14.755V15.2107Z" fill="#959DA8"/>
<path d="M68.2951 7.66476C66.5089 7.66476 65.0143 8.22979 64.0483 9.66971V7.84703H59.6738V18.7831H64.0483V12.8776C65.3059 11.4924 67.001 11.3101 68.5503 11.3101C69.3523 11.3101 70.1725 11.4195 71.1932 11.6747V8.0293C70.4641 7.84703 69.571 7.66476 68.2951 7.66476Z" fill="#959DA8"/>
<path d="M82.5141 7.84703L79.4702 15.4476L76.2987 7.84703H71.5597L76.1165 18.7831H78.1214L76.2987 23.3398H81.0377L87.2531 7.84703H82.5141Z" fill="#959DA8"/>
<path d="M86.7072 15.0102C86.7072 18.4368 90.3526 18.9654 94.4901 18.9654C98.6276 18.9654 101.544 18.4368 101.544 15.1013C101.544 12.2397 98.7916 11.9845 94.4901 11.7658C91.7196 11.62 91.264 11.6382 91.264 11.1825C91.264 10.7633 91.9019 10.7633 94.1256 10.7633C96.0758 10.7633 96.8049 10.7633 96.8049 11.3466H101.179C101.179 8.19334 98.3542 7.66476 94.3078 7.66476C90.2615 7.66476 86.8895 8.19334 86.8895 11.3101C86.8895 14.0988 89.095 14.4816 94.1256 14.6821C96.7502 14.7915 97.1695 14.7368 97.1695 15.2836C97.1695 15.7575 96.7502 15.8668 94.3078 15.8668C91.6649 15.8668 91.0817 15.6299 91.0817 15.0102H86.7072Z" fill="#959DA8"/>
<path d="M111.751 7.66476C109.454 7.66476 107.777 8.39383 106.465 9.30518V4.20166H102.09V18.7831H106.465V12.8776C107.322 12.0574 108.689 11.4924 109.983 11.4924C111.951 11.4924 112.626 12.2944 112.626 14.1717V18.7831H117V12.3855C117 8.43029 114.211 7.66476 111.751 7.66476Z" fill="#959DA8"/>
<path d="M17.0527 15.7199C17.4239 15.1282 17.6907 14.467 17.8415 13.771H23.6997C23.6185 14.4438 23.4909 15.0934 23.3053 15.7199H17.0527Z" fill="#959DA8"/>
<path d="M11.8789 18.4691C8.52634 18.4691 5.81183 15.7546 5.81183 12.4021C5.81183 9.04954 8.52634 6.33503 11.8789 6.33503H22.1105C20.0456 2.84329 16.2406 0.5 11.8789 0.5C5.32461 0.5 0 5.81301 0 12.3789C0 18.9447 5.31301 24.2461 11.8789 24.2461C16.2174 24.2461 20.0108 21.926 22.0757 18.4575" fill="#959DA8"/>
<path d="M11.8789 15.8707C13.8073 15.8707 15.3706 14.3074 15.3706 12.3789C15.3706 10.4505 13.8073 8.88721 11.8789 8.88721C9.95042 8.88721 8.38712 10.4505 8.38712 12.3789C8.38712 14.3074 9.95042 15.8707 11.8789 15.8707Z" fill="#959DA8"/>
<path d="M16.9135 9.07227C17.3079 9.66389 17.6095 10.3135 17.7951 11.0327H23.7114C23.6301 10.3599 23.5025 9.71029 23.3169 9.07227C23.3169 9.07227 16.9135 9.07227 16.9135 9.07227Z" fill="#959DA8"/>
</svg>
