<?xml version="1.0" standalone="no"?>
<!DOCTYPE svg PUBLIC "-//W3C//DTD SVG 20010904//EN"
 "http://www.w3.org/TR/2001/REC-SVG-20010904/DTD/svg10.dtd">
<svg version="1.0" xmlns="http://www.w3.org/2000/svg"
 width="1640.000000pt" height="280.000000pt" viewBox="0 0 1640.000000 280.000000"
 preserveAspectRatio="xMidYMid meet">
<metadata>
Created by potrace 1.16, written by Peter Selinger 2001-2019
</metadata>
<g transform="translate(0.000000,280.000000) scale(0.100000,-0.100000)"
fill="#4c623f" stroke="none">
<path d="M965 2410 c-150 -27 -307 -88 -427 -166 -88 -58 -249 -216 -303 -299
-218 -334 -242 -733 -65 -1090 59 -120 124 -208 222 -301 217 -206 486 -305
792 -291 610 26 1083 562 1026 1162 -44 472 -356 843 -806 962 -80 20 -127 26
-244 29 -80 1 -167 -1 -195 -6z m304 -100 c232 -30 458 -153 611 -335 53 -63
58 -80 36 -110 -13 -18 -16 -18 -55 18 -92 83 -209 116 -339 97 -101 -16 -171
-50 -225 -110 -76 -84 -87 -197 -31 -301 37 -68 70 -94 279 -224 257 -160 292
-204 283 -347 -6 -87 -31 -142 -88 -190 -50 -43 -98 -58 -186 -58 -180 0 -300
147 -323 394 -3 42 -11 71 -18 74 -10 3 -13 -50 -12 -245 1 -211 3 -240 13
-196 17 80 26 83 89 35 82 -63 139 -85 237 -90 261 -13 450 121 450 320 0 164
-64 242 -343 417 -107 67 -204 132 -215 144 -51 54 -67 157 -35 224 40 85 141
141 232 129 61 -8 144 -50 176 -88 62 -73 115 -227 115 -332 0 -34 4 -46 15
-46 13 0 15 28 15 191 0 139 3 188 11 183 19 -11 96 -184 121 -269 20 -70 23
-102 23 -250 0 -189 -7 -228 -65 -371 -112 -275 -331 -473 -630 -569 -115 -37
-346 -47 -467 -20 -479 107 -802 521 -780 1000 11 252 115 482 295 657 219
213 501 306 811 268z"/>
<path d="M666 1970 c-124 -22 -250 -121 -309 -243 -54 -112 -70 -196 -71 -372
0 -183 13 -254 69 -372 68 -140 186 -225 336 -242 145 -16 265 16 357 95 24
20 49 34 57 31 8 -3 17 -23 20 -44 18 -114 23 -83 24 144 l1 241 -77 63 c-211
170 -330 211 -449 155 -70 -32 -76 -46 -22 -46 77 0 232 -90 388 -226 25 -21
58 -48 73 -59 l27 -20 -16 -55 c-22 -75 -68 -145 -126 -191 -118 -93 -269 -89
-367 9 -83 84 -123 197 -142 395 -24 258 29 514 130 630 18 20 57 48 87 63 49
24 63 26 129 21 91 -7 150 -32 214 -92 69 -64 85 -110 117 -332 3 -18 9 -33
14 -33 6 0 10 96 9 248 -1 223 -2 242 -14 194 -7 -30 -18 -59 -24 -65 -12 -12
-15 -11 -98 44 -81 55 -223 80 -337 59z"/>
<path d="M2818 1810 c-229 -39 -385 -284 -348 -550 27 -197 159 -338 345 -371
85 -14 153 -8 301 31 64 16 124 30 134 30 16 0 18 14 22 134 3 114 6 138 22
155 11 12 30 21 43 21 20 0 23 5 23 40 l0 40 -170 0 -170 0 0 -45 0 -45 51 0
52 0 -7 -46 c-3 -26 -6 -79 -6 -119 l0 -73 -32 -12 c-18 -6 -71 -14 -118 -17
-79 -5 -89 -3 -139 24 -64 33 -112 97 -139 182 -26 85 -23 277 6 351 32 83 75
135 134 164 130 65 291 -5 332 -144 12 -42 16 -45 49 -48 l37 -3 0 150 0 151
-45 0 c-41 0 -45 -2 -45 -25 0 -29 -2 -30 -38 -11 -35 18 -171 46 -214 45 -18
-1 -54 -5 -80 -9z"/>
<path d="M9722 1806 c-145 -37 -222 -171 -182 -316 24 -88 104 -153 287 -234
174 -77 211 -114 191 -193 -13 -50 -68 -86 -138 -91 -112 -8 -214 65 -242 175
-10 41 -12 43 -49 43 l-39 0 0 -150 0 -150 45 0 c42 0 45 2 45 26 0 21 3 25
18 19 107 -47 200 -62 286 -46 154 28 246 123 246 251 0 126 -78 204 -290 295
-109 47 -177 90 -195 126 -59 114 85 212 220 150 63 -28 100 -81 131 -189 3
-9 17 -12 41 -10 l38 3 3 148 3 147 -52 0 c-50 0 -51 -1 -46 -26 4 -20 1 -24
-12 -18 -120 50 -218 63 -309 40z"/>
<path d="M3830 1750 l0 -51 45 7 45 6 0 -333 c0 -367 -2 -377 -58 -393 -29 -8
-32 -13 -32 -47 l0 -39 191 0 190 0 -3 48 -3 47 -52 -2 -53 -2 0 129 0 130 39
0 40 0 92 -147 c138 -218 121 -203 245 -203 l104 0 0 39 c0 30 -5 41 -19 46
-38 12 -73 49 -142 152 -39 57 -83 112 -99 122 l-30 18 55 22 c106 44 168 130
169 236 2 118 -48 192 -161 236 -54 21 -76 23 -310 27 l-253 4 0 -52z m460
-60 c55 -28 74 -69 75 -155 0 -134 -53 -189 -184 -190 l-76 0 -3 135 c-3 150
1 192 24 215 23 22 116 20 164 -5z"/>
<path d="M5090 1749 l0 -50 45 7 45 6 0 -333 c0 -367 -2 -377 -58 -393 -29 -8
-32 -13 -32 -47 l0 -39 334 0 333 0 7 77 c3 42 6 105 6 140 l0 63 -40 0 c-37
0 -40 -2 -40 -27 -1 -45 -36 -111 -72 -133 -28 -17 -50 -20 -145 -20 l-113 0
0 159 0 159 24 6 c64 16 130 -21 140 -80 7 -32 9 -34 46 -34 l40 0 0 155 0
155 -51 0 -51 0 7 -55 6 -55 -80 0 -81 0 0 114 c0 128 11 173 47 187 40 15
125 10 170 -10 47 -22 64 -48 72 -106 6 -38 8 -40 44 -43 l37 -3 0 125 0 126
-320 0 -320 0 0 -51z"/>
<path d="M6270 1749 l0 -50 45 7 45 6 0 -333 c0 -367 -2 -377 -58 -393 -29 -8
-32 -13 -32 -47 l0 -39 334 0 333 0 7 77 c3 42 6 105 6 140 l0 63 -40 0 c-37
0 -40 -2 -40 -27 -1 -45 -36 -111 -72 -133 -28 -17 -50 -20 -145 -20 l-113 0
0 159 0 159 24 6 c64 16 130 -21 140 -80 7 -32 9 -34 46 -34 l40 0 0 155 0
155 -51 0 -51 0 7 -55 6 -55 -80 0 -81 0 0 114 c0 128 11 173 47 187 40 15
125 10 170 -10 47 -22 64 -48 72 -106 6 -38 8 -40 44 -43 l37 -3 0 125 0 126
-320 0 -320 0 0 -51z"/>
<path d="M7450 1749 l0 -50 45 7 45 6 0 -339 c0 -372 0 -375 -60 -388 -27 -6
-30 -10 -30 -46 l0 -39 145 0 145 0 0 51 0 52 -47 -7 -48 -6 0 255 c0 140 3
254 7 253 4 -2 112 -138 241 -303 l234 -300 56 -3 57 -3 0 388 c0 427 0 425
60 438 27 6 30 10 30 46 l0 39 -145 0 -145 0 0 -50 0 -50 48 3 c33 1 47 -2 46
-10 -1 -7 -2 -126 -2 -263 l-2 -251 -67 89 c-38 49 -147 188 -243 310 l-175
221 -97 1 -98 0 0 -51z"/>
<path d="M10640 1655 l0 -145 39 0 38 0 6 49 c12 104 62 151 160 151 l57 0 0
-332 c0 -365 -2 -376 -58 -392 -29 -8 -32 -13 -32 -47 l0 -39 185 0 185 0 0
51 0 52 -50 -7 -50 -7 2 363 c3 409 -4 377 85 363 78 -11 120 -63 138 -167 6
-37 7 -38 47 -38 37 0 40 2 34 23 -3 12 -6 77 -6 145 l0 122 -390 0 -390 0 0
-145z"/>
<path d="M11900 1749 l0 -50 45 7 45 6 0 -326 c0 -366 -3 -388 -59 -399 -29
-6 -31 -10 -31 -47 l0 -40 335 0 335 0 0 88 c0 48 3 111 6 140 l7 52 -40 0
c-40 0 -41 -1 -47 -43 -8 -50 -33 -92 -72 -118 -24 -16 -48 -19 -144 -19
l-115 0 3 159 c3 179 2 177 79 165 50 -7 83 -41 83 -85 0 -27 3 -29 40 -29
l40 0 0 155 0 155 -45 0 -45 0 0 -55 0 -55 -76 0 -76 0 4 135 c4 160 7 166 97
173 109 8 179 -37 188 -122 6 -46 6 -46 44 -46 l39 0 0 103 c0 56 -3 112 -6
125 l-6 22 -314 0 -314 0 0 -51z"/>
<path d="M13072 1753 l3 -48 48 3 48 4 -3 -340 c-3 -314 -4 -341 -22 -360 -10
-12 -31 -24 -47 -27 -26 -6 -29 -11 -29 -46 l0 -39 190 0 190 0 0 51 0 51 -56
-7 -57 -7 6 39 c4 21 7 75 7 121 l0 82 78 0 c126 0 228 37 298 107 53 53 74
105 74 188 0 128 -61 212 -184 252 -40 13 -104 17 -299 21 l-248 4 3 -49z
m458 -62 c57 -30 75 -72 75 -171 0 -72 -4 -91 -24 -123 -32 -53 -85 -77 -166
-77 l-65 0 0 173 c0 211 3 217 88 217 37 0 70 -7 92 -19z"/>
<path d="M14272 1753 l3 -48 48 3 48 4 -3 -340 c-3 -314 -4 -341 -22 -360 -10
-12 -31 -24 -47 -27 -26 -6 -29 -11 -29 -46 l0 -39 190 0 190 0 0 51 0 51 -56
-7 -57 -7 6 39 c4 21 7 75 7 121 l0 82 78 0 c126 0 228 37 298 107 53 53 74
105 74 188 0 128 -61 212 -184 252 -40 13 -104 17 -299 21 l-248 4 3 -49z
m458 -62 c57 -30 75 -72 75 -171 0 -72 -4 -91 -24 -123 -32 -53 -85 -77 -166
-77 l-65 0 0 173 c0 211 3 217 88 217 37 0 70 -7 92 -19z"/>
<path d="M15472 1753 l3 -48 48 3 48 4 -3 -340 c-3 -314 -4 -341 -22 -360 -10
-12 -31 -24 -47 -27 -26 -6 -29 -11 -29 -46 l0 -39 340 0 340 0 0 140 0 140
-35 0 c-28 0 -36 -4 -39 -22 -3 -13 -7 -36 -11 -51 -3 -15 -21 -45 -40 -65
l-33 -37 -124 -3 -123 -4 4 159 c2 103 7 161 15 166 15 11 86 -1 113 -19 15
-9 25 -29 29 -54 6 -39 8 -40 45 -40 l39 0 0 155 0 155 -45 0 -45 0 0 -55 0
-55 -75 0 -75 0 0 129 c0 164 6 174 106 179 108 5 169 -38 181 -126 6 -41 6
-42 44 -42 l39 0 0 43 c0 23 -3 79 -7 125 l-6 82 -319 0 -319 0 3 -47z"/>
</g>
</svg>
