<svg width="36" height="36" viewBox="0 0 36 36" fill="none" xmlns="http://www.w3.org/2000/svg">
<path d="M18.0419 35.15C14.9687 35.15 11.9435 34.3337 9.2784 32.7971L2.43567 35.15L3.85224 27.8991C1.64336 24.8739 0.490899 21.3205 0.490899 17.575C0.46689 7.87514 8.34203 0 18.0419 0C27.7418 0 35.6169 7.87514 35.6169 17.575C35.6169 27.2749 27.7418 35.15 18.0419 35.15ZM9.59053 29.9159L10.1187 30.2521C12.4957 31.7406 15.2568 32.533 18.0419 32.533C26.3012 32.533 32.9999 25.8103 32.9999 17.575C32.9999 9.31571 26.2772 2.61704 18.0419 2.61704C9.7826 2.61704 3.08393 9.33972 3.08393 17.575C3.08393 20.9363 4.18837 24.1056 6.2532 26.7707L6.61334 27.2509L5.86904 31.2124L9.59053 29.9159Z" fill="#25D366"/>
<path d="M9.15847 10.8285C9.15847 10.8285 10.1909 9.02779 11.0312 8.93175C11.8715 8.83572 12.952 8.83572 13.2401 9.38794C13.5282 9.94016 14.8247 13.1334 14.8247 13.1334C14.8247 13.1334 15.0408 13.6856 14.7047 14.2139C14.3685 14.7421 13.6002 15.5104 13.6002 15.5104C13.6002 15.5104 13.1681 16.0626 13.6002 16.6388C14.0324 17.2151 14.7047 18.2955 16.0732 19.664C17.4418 21.0326 20.0828 22.017 20.0828 22.017C20.0828 22.017 20.467 22.065 20.7071 21.8249C20.9472 21.5848 22.2437 19.9521 22.2437 19.9521C22.2437 19.9521 22.6518 19.3999 23.3481 19.7361C24.0444 20.0482 27.0456 21.5608 27.0456 21.5608C27.0456 21.5608 27.4057 21.6808 27.4057 22.2331C27.4057 22.7613 27.1897 24.0578 26.7575 24.514C26.3253 24.9461 25.0288 26.3147 23.084 26.3147C21.1392 26.3147 16.5534 24.7301 14.0804 22.2811C11.6315 19.8321 9.44658 17.3351 8.94238 15.0782C8.46219 12.7733 8.53422 11.7649 9.15847 10.8285Z" fill="#25D366"/>
</svg>
