<svg width="183" height="39" viewBox="0 0 183 39" fill="none" xmlns="http://www.w3.org/2000/svg">
<path d="M38.6368 17.6973C37.7951 7.78348 29.492 0 19.36 0C8.66678 0 0 8.65639 0 19.3496C0 30.0428 8.66679 38.6992 19.3496 38.6992C29.4712 38.6992 37.7743 30.9261 38.6264 21.0331H23.3816L30.9157 28.5671L28.5671 30.8949L20.9811 23.3089V34.0125H17.6557V23.3089L10.0801 30.8845L7.79387 28.5983L15.3799 21.0227H4.57241V17.6973H15.3799L7.79387 10.1112L10.0801 7.82505L17.6661 15.4111V4.60358H20.9915V15.4111L28.5775 7.82505L30.8637 10.1112L23.2777 17.6973H38.6368Z" fill="black"/>
<path d="M59.5452 11.67H50.8057C48.2805 11.67 46.2437 13.7172 46.2437 16.2321V22.3736C46.2437 24.8988 48.2908 26.9356 50.8057 26.9356H59.5452V23.922H51.3253C50.3588 23.922 49.569 23.1322 49.569 22.1658V16.4295C49.569 15.4631 50.3588 14.6733 51.3253 14.6733H59.5452V11.67Z" fill="black"/>
<path d="M77.336 16.2632V22.3528C77.336 24.8884 75.2784 26.946 72.7428 26.946H66.1025C63.5669 26.946 61.5093 24.8884 61.5093 22.3528V16.2632C61.5093 13.7276 63.5669 11.67 66.1025 11.67H72.7428C75.2784 11.67 77.336 13.7276 77.336 16.2632ZM72.2648 14.6837H66.5909C65.6348 14.6837 64.8658 15.4527 64.8658 16.4087V22.2074C64.8658 23.1634 65.6348 23.9324 66.5909 23.9324H72.2648C73.2209 23.9324 73.9899 23.1634 73.9899 22.2074V16.4087C73.9899 15.4527 73.2105 14.6837 72.2648 14.6837Z" fill="black"/>
<path d="M79.6016 11.67H82.9269V17.8012H92.0718V11.67H95.3971V26.946H92.0718V20.8149H82.9269V26.946H79.6016V11.67Z" fill="black"/>
<path d="M97.7039 11.67H113.479V14.6837H101.008V17.8012H112.855V20.8149H101.008V23.9324H113.479V26.946H97.7039V11.67Z" fill="black"/>
<path d="M125.398 11.67C131.571 11.67 131.561 15.2344 131.561 16.2944C131.561 17.3232 131.561 20.8149 125.398 20.8149L131.561 26.9772H126.811L120.649 20.8149H119.09V26.946H115.869V11.67C119.049 11.67 122.218 11.67 125.398 11.67ZM119.09 14.6837V17.8012H126.791C127.653 17.8012 128.349 17.105 128.349 16.2424C128.349 15.3799 127.653 14.6837 126.791 14.6837H119.09Z" fill="black"/>
<path d="M133.951 11.67H149.725V14.6837H137.255V17.8012H149.102V20.8149H137.255V23.9324H149.725V26.946H133.951V11.67Z" fill="black"/>
<path d="M152.032 11.67V26.946H155.254V16.0346L163.567 26.946H167.735V11.67H164.503V22.5815L156.085 11.67H152.032Z" fill="black"/>
<path d="M183 11.67V14.6837H178.116V26.946H174.79V14.6837H169.802V11.67H183Z" fill="black"/>
</svg>
