<?xml version="1.0" encoding="utf-8"?>
<!-- Generator: Adobe Illustrator 24.0.2, SVG Export Plug-In . SVG Version: 6.00 Build 0)  -->
<svg version="1.1" id="Layer_1" xmlns="http://www.w3.org/2000/svg" xmlns:xlink="http://www.w3.org/1999/xlink" x="0px" y="0px"
	 viewBox="0 0 1102 457" style="enable-background:new 0 0 1102 457;" xml:space="preserve">
<style type="text/css">
	.st0{fill:#FFFFFF;}
</style>
<g>
	<path class="st0" d="M31.7,321.4V143.6H56v177.8H31.7z"/>
	<path class="st0" d="M210,143.6h23.1v177.8h-27l-91.3-144.1v144.1H91.7V143.6h28.5L210,287.6V143.6z"/>
	<path class="st0" d="M385.6,143.6h23.1v177.8h-27l-91.3-144.1v144.1h-23.1V143.6h28.5l89.8,144.1V143.6z"/>
	<path class="st0" d="M512.3,321.4H488V164.6h-60v-21.1h144.3v21.1h-60V321.4z"/>
	<path class="st0" d="M616.7,165.4v53.8h98.2v20.6h-98.2v60.5h108.1v21.1H593.2V143.6h129.7v21.8H616.7z"/>
	<path class="st0" d="M900.9,196.9h-23.3c-2.7-11.4-8.2-20.6-15.9-27.3c-8.2-6.7-19.3-9.9-33.7-9.9c-17.4,0-31.5,6.2-42.4,18.4
		c-10.7,12.4-16.1,31.2-16.1,56.5c0,20.8,5,37.7,14.6,50.6c9.7,13.1,24.3,19.6,43.4,19.6c17.9,0,31.2-6.7,40.7-20.3
		c5-7.2,8.7-16.6,10.9-28.5h23.6c-2,18.8-8.9,34.5-20.8,47.1c-14.1,15.4-33.2,23.1-57,23.1c-20.8,0-38.2-6.4-52.1-18.8
		c-18.6-16.6-27.8-42.2-27.8-76.6c0-26.3,6.9-47.9,20.8-64.5c14.9-18.4,35.7-27.5,62-27.5c22.6,0,40.2,6,52.6,17.9
		C892.7,168.4,899.7,181.7,900.9,196.9z"/>
	<path class="st0" d="M1046,217v-73.4h24.3v177.8H1046v-83.1h-92.5v83.1h-24.3V143.6h24.3V217H1046z"/>
</g>
<g>
	<rect y="30" class="st0" width="1102" height="12"/>
</g>
<g>
	<rect y="423" class="st0" width="1102" height="12"/>
</g>
</svg>
