<?xml version="1.0" encoding="utf-8"?>
<!-- Generator: Adobe Illustrator 24.0.2, SVG Export Plug-In . SVG Version: 6.00 Build 0)  -->
<svg version="1.1" id="Layer_1" xmlns="http://www.w3.org/2000/svg" xmlns:xlink="http://www.w3.org/1999/xlink" x="0px" y="0px"
	 viewBox="0 0 1298 586" style="enable-background:new 0 0 1298 586;" xml:space="preserve">
<style type="text/css">
	.st0{fill:#FFFFFF;}
</style>
<g>
	<path class="st0" d="M196.3,75.5l188.3,108.7v217.4L196.3,510.2L8,401.5V184.2L196.3,75.5 M196.3,69.7L3,181.3v223.2L196.3,516
		l193.3-111.6V181.3L196.3,69.7L196.3,69.7z"/>
	<g>
		<circle class="st0" cx="196.5" cy="513" r="6"/>
	</g>
	<g>
		<rect x="194" y="75" class="st0" width="5" height="434"/>
	</g>
	<g>
		<rect x="99" y="128" class="st0" width="5" height="330"/>
	</g>
	<g>
		<rect x="289" y="128" class="st0" width="5" height="330"/>
	</g>
	<g>
		<g>
			<rect x="241" y="45" transform="matrix(0.5 -0.866 0.866 0.5 -60.1153 315.8772)" class="st0" width="5" height="330"/>
		</g>
		<g>
			<rect x="145.2" y="209.7" transform="matrix(0.5 -0.866 0.866 0.5 -250.635 315.234)" class="st0" width="5" height="330"/>
		</g>
		<g>
			<rect x="193.7" y="74.1" transform="matrix(0.5 -0.866 0.866 0.5 -155.1061 316.1563)" class="st0" width="5" height="436.5"/>
		</g>
	</g>
	<g>
		<g>
			<rect x="-17.3" y="208.5" transform="matrix(0.866 -0.5 0.5 0.866 -85.7142 102.1102)" class="st0" width="330" height="5"/>
		</g>
		<g>
			<rect x="78.5" y="373.2" transform="matrix(0.866 -0.5 0.5 0.866 -155.2138 172.0807)" class="st0" width="330" height="5"/>
		</g>
		<g>
			<rect x="-23.3" y="290.9" transform="matrix(0.866 -0.5 0.5 0.866 -120.5854 136.7771)" class="st0" width="436.5" height="5"/>
		</g>
	</g>
	<g>
		<circle class="st0" cx="101" cy="458" r="6"/>
	</g>
	<g>
		<circle class="st0" cx="6" cy="403" r="6"/>
	</g>
	<g>
		<circle class="st0" cx="6" cy="293" r="6"/>
	</g>
	<g>
		<circle class="st0" cx="102" cy="127" r="6"/>
	</g>
	<g>
		<circle class="st0" cx="197" cy="73" r="6"/>
	</g>
	<g>
		<circle class="st0" cx="292" cy="458" r="6"/>
	</g>
	<g>
		<circle class="st0" cx="292" cy="128" r="6"/>
	</g>
	<g>
		<circle class="st0" cx="387" cy="183" r="6"/>
	</g>
	<g>
		<circle class="st0" cx="387" cy="293" r="6"/>
	</g>
	<g>
		<circle class="st0" cx="387" cy="404" r="6"/>
	</g>
	<g>
		<circle class="st0" cx="7" cy="183" r="6"/>
	</g>
</g>
<g>
	<path class="st0" d="M543.4,290.7V165.1h17.1v125.6L543.4,290.7L543.4,290.7z"/>
	<path class="st0" d="M669.1,165.1h16.3v125.6h-19l-64.4-101.8v101.8h-16.3V165.1h20.1l63.3,101.7V165.1z"/>
	<path class="st0" d="M792.9,165.1h16.3v125.6h-19l-64.4-101.8v101.8h-16.3V165.1h20.1l63.3,101.8V165.1L792.9,165.1z"/>
	<path class="st0" d="M882.2,290.7h-17.1V180h-42.3V165h101.7V180h-42.3V290.7z"/>
	<path class="st0" d="M955.8,180.5v38h69.2v14.6h-69.2v42.7h76.2v14.9h-92.8V165.1h91.4v15.4L955.8,180.5L955.8,180.5z"/>
	<path class="st0" d="M1156.2,202.8h-16.4c-1.9-8.1-5.8-14.6-11.2-19.3c-5.8-4.7-13.6-7-23.8-7c-12.3,0-22.2,4.4-29.9,13
		c-7.5,8.8-11.4,22-11.4,39.9c0,14.7,3.5,26.6,10.3,35.7c6.8,9.3,17.1,13.8,30.6,13.8c12.6,0,22-4.7,28.7-14.3
		c3.5-5.1,6.1-11.7,7.7-20.1h16.6c-1.4,13.3-6.3,24.4-14.7,33.3c-9.9,10.9-23.4,16.3-40.2,16.3c-14.7,0-26.9-4.5-36.7-13.3
		c-13.1-11.7-19.6-29.8-19.6-54.1c0-18.6,4.9-33.8,14.7-45.6c10.5-13,25.2-19.4,43.7-19.4c15.9,0,28.3,4.2,37.1,12.6
		C1150.4,182.6,1155.4,192,1156.2,202.8z"/>
	<path class="st0" d="M1258.5,217v-51.9h17.1v125.6h-17.1V232h-65.2v58.7h-17.1V165.1h17.1V217H1258.5z"/>
</g>
<g>
	<rect x="521" y="84.9" class="st0" width="777" height="8.5"/>
</g>
<g>
	<rect x="521" y="362.5" class="st0" width="777" height="8.5"/>
</g>
<g>
	<path class="st0" d="M526.1,501.8h-3.7c-0.8,0-1.2-0.4-1.2-1.2V452c0-0.5,0.1-0.8,0.2-0.9c0.2-0.2,0.5-0.2,0.9-0.2h3.7
		c0.8,0,1.2,0.4,1.2,1.2v48.5c0,0.5-0.1,0.8-0.2,1C527,501.7,526.6,501.8,526.1,501.8z"/>
	<path class="st0" d="M569.8,486.3H542c0.4,3.1,1.7,5.7,4.1,7.7c2.4,2.1,5.2,3.2,8.3,3.2c3.7,0,7.2-1.1,10.4-3.2
		c0.6-0.3,0.9-0.4,1-0.4c0.2,0,0.5,0.2,0.8,0.5l1.5,1.9c0.5,0.6,0.5,1.2,0.1,1.7c-1.5,1.5-3.6,2.6-6.1,3.5c-2.6,0.9-5.2,1.3-7.8,1.3
		c-5.2,0-9.6-1.8-13.1-5.3c-3.5-3.6-5.3-8-5.3-13c0-5.1,1.7-9.4,5.2-13c3.5-3.6,7.8-5.4,12.8-5.4c5.3,0,9.5,1.8,12.5,5.5
		c3.1,3.6,4.6,8.2,4.6,13.6c0,0.5-0.1,0.9-0.2,1C570.6,486.2,570.3,486.3,569.8,486.3z M553.8,470.9c-3.2,0-5.9,1.1-8.1,3.4
		c-2.1,2.3-3.3,4.9-3.5,7.9h22.6c-0.2-3-1.3-5.7-3.3-7.9C559.5,472.1,556.9,470.9,553.8,470.9z"/>
	<path class="st0" d="M579.7,487.2v-15.7h-3.1c-0.8,0-1.2-0.4-1.2-1.2v-2.6c0-0.8,0.4-1.2,1.2-1.2h3.1v-7c0-0.5,0.1-0.8,0.2-0.9
		c0.2-0.2,0.5-0.2,0.9-0.2h3.7c0.5,0,0.8,0.1,0.9,0.2c0.2,0.2,0.2,0.5,0.2,0.9v7h11.9c0.5,0,0.8,0.1,0.9,0.2c0.2,0.2,0.2,0.5,0.2,1
		v2.5c0,0.5-0.1,0.8-0.2,0.9c-0.2,0.2-0.5,0.2-0.9,0.2h-11.9v15.2c0,3.7,0.6,6.3,1.7,7.9c1.1,1.6,3,2.3,5.7,2.3c1.7,0,3.3-0.3,4.6-1
		c0.3-0.2,0.6-0.3,0.9-0.3s0.5,0.3,0.6,1l0.6,2.6c0.1,0.7-0.1,1.2-0.6,1.5c-1.9,1.1-4.1,1.7-6.6,1.7
		C583.9,502.5,579.7,497.4,579.7,487.2z"/>
	<path class="st0" d="M605.7,472.1l-1.1-1.7c-0.2-0.3-0.1-0.6,0.3-0.8c3.4-2.2,5.3-4.9,5.8-8.1h-0.4c-1.2,0-2.3-0.5-3.1-1.3
		c-0.8-0.9-1.2-1.9-1.2-3.1c0-1.2,0.4-2.3,1.3-3.2c0.9-0.9,1.9-1.3,3.1-1.3c1.4,0,2.5,0.5,3.4,1.6c0.9,1,1.3,2.4,1.3,4.2
		c0,6.3-2.8,10.9-8.5,13.8l-0.4,0.1C606,472.3,605.8,472.2,605.7,472.1z"/>
	<path class="st0" d="M620,496.4l1.2-2c0.4-0.6,0.7-0.8,0.9-0.8c0.2,0,0.4,0.1,0.8,0.3c3.6,2.5,7.4,3.8,11.4,3.8
		c2.9,0,5-0.5,6.6-1.6c1.5-1.1,2.3-2.5,2.3-4.3c0-1.3-0.7-2.4-2.2-3.2c-1.5-0.8-3.9-1.4-7.1-1.8c-3.9-0.6-6.9-1.4-9.2-2.6
		c-2.8-1.5-4.1-3.9-4.1-7.4c0-3.3,1.2-6,3.7-7.9c2.5-2,5.7-3,9.8-3c4.6,0,8.9,1.3,13.2,3.9c0.6,0.4,0.8,0.9,0.4,1.7l-1.1,1.9
		c-0.5,0.8-1,1-1.7,0.6c-3.5-2.2-7-3.2-10.5-3.2c-2.6,0-4.6,0.5-6,1.5c-1.4,1-2.1,2.4-2.1,4.2c0,1.6,0.6,2.7,1.9,3.3
		c1.3,0.6,3.7,1.2,7.3,1.7c4.4,0.6,7.7,1.7,10,3.2c2.3,1.6,3.4,3.8,3.4,6.8c0,3.3-1.3,6-3.8,8c-2.6,2-6,3-10.4,3
		c-5.1,0-9.8-1.5-14.3-4.4C619.8,497.7,619.7,497.1,620,496.4z"/>
	<path class="st0" d="M672.5,500.5v-32.7c0-0.5,0.1-0.8,0.2-0.9c0.2-0.2,0.5-0.2,0.9-0.2h1.9c0.6,0,1,0.4,1.4,1.2l0.7,5.8
		c2.7-5.2,6.3-7.7,10.8-7.7c2.8,0,5.2,0.8,7.2,2.3c2,1.5,3.5,3.4,4.4,5.7c1.1-2.3,2.6-4.2,4.6-5.7c1.9-1.5,4.2-2.2,6.8-2.2
		c4,0,7.1,1.3,9.5,4c2.4,2.6,3.6,6.5,3.6,11.6v19c0,0.8-0.4,1.2-1.2,1.2h-3.7c-0.8,0-1.2-0.4-1.2-1.2V483c0-3.7-0.8-6.5-2.3-8.6
		c-1.5-2-3.6-3.1-6.1-3.1c-2.5,0-4.6,1.1-6.1,3.2c-1.6,2.1-2.3,4.9-2.3,8.5v17.5c0,0.8-0.4,1.2-1.2,1.2h-3.7c-0.8,0-1.2-0.4-1.2-1.2
		V483c0-3.6-0.7-6.4-2.2-8.5c-1.5-2.1-3.6-3.1-6.2-3.1s-4.7,1.1-6.2,3.3c-1.5,2.2-2.3,5.1-2.3,8.8v17.1c0,0.8-0.4,1.2-1.2,1.2h-3.7
		C672.9,501.8,672.5,501.4,672.5,500.5z"/>
	<path class="st0" d="M757.6,500.5l-0.3-4.2c-3.2,4.1-7.7,6.2-13.5,6.2c-3.4,0-6.3-1-8.7-3c-2.3-2-3.5-4.8-3.5-8.4
		c0-3.6,1.2-6.4,3.7-8.3c2.5-1.9,5.9-2.9,10.1-2.9c3.6,0,7.3,0.7,10.9,2.2c0-4-0.7-6.9-2-8.5c-1.4-1.6-3.8-2.4-7.2-2.4
		c-3.1,0-6.6,0.4-10.4,1.1c-0.1,0-0.3,0.1-0.5,0.1c-0.5,0-0.8-0.4-1-1.2l-0.6-2.5c-0.2-0.8,0-1.3,0.8-1.5c3.3-0.8,7.3-1.2,11.9-1.2
		c5.8,0,9.8,1.3,11.9,3.9c2.1,2.5,3.2,6.8,3.2,12.7v18.1c0,0.8-0.4,1.2-1.2,1.2h-2.3C758.3,501.8,757.9,501.4,757.6,500.5z
		 M756.2,491.8v-5.2c-3.9-1.5-7.1-2.3-9.5-2.3c-6.1,0-9.2,2.3-9.2,6.8c0,2,0.7,3.6,2.1,4.8s3.4,1.9,5.9,1.9c2,0,3.9-0.6,5.9-1.7
		C753.4,495,755,493.6,756.2,491.8z"/>
	<path class="st0" d="M771.9,500.5V452c0-0.5,0.1-0.8,0.2-0.9c0.2-0.2,0.5-0.2,0.9-0.2h3.7c0.8,0,1.2,0.4,1.2,1.2V482l14.9-14.1
		c0.6-0.8,1.3-1.2,1.9-1.2h5.2c0.4,0,0.7,0.1,0.8,0.4c0.1,0.3,0,0.5-0.3,0.8l-16.4,15.3l17.3,17.4c0.7,0.8,0.6,1.2-0.4,1.2h-5.2
		c-0.6,0-1.2-0.4-1.9-1.2L778,484.7v15.9c0,0.5-0.1,0.8-0.2,1c-0.2,0.2-0.5,0.3-1,0.3h-3.7C772.3,501.8,771.9,501.4,771.9,500.5z"/>
	<path class="st0" d="M838.8,486.3H811c0.4,3.1,1.7,5.7,4.1,7.7c2.4,2.1,5.2,3.2,8.3,3.2c3.7,0,7.2-1.1,10.4-3.2
		c0.6-0.3,0.9-0.4,1-0.4c0.2,0,0.5,0.2,0.8,0.5l1.5,1.9c0.5,0.6,0.5,1.2,0.1,1.7c-1.5,1.5-3.6,2.6-6.1,3.5c-2.6,0.9-5.2,1.3-7.8,1.3
		c-5.2,0-9.6-1.8-13.1-5.3c-3.5-3.6-5.3-8-5.3-13c0-5.1,1.7-9.4,5.2-13c3.5-3.6,7.8-5.4,12.8-5.4c5.3,0,9.5,1.8,12.5,5.5
		c3.1,3.6,4.6,8.2,4.6,13.6c0,0.5-0.1,0.9-0.2,1C839.6,486.2,839.3,486.3,838.8,486.3z M822.8,470.9c-3.2,0-5.9,1.1-8.1,3.4
		c-2.1,2.3-3.3,4.9-3.5,7.9h22.6c-0.2-3-1.3-5.7-3.3-7.9C828.5,472.1,826,470.9,822.8,470.9z"/>
	<path class="st0" d="M868,459.3c-1.2,0-2.1-0.4-2.9-1.1s-1.1-1.7-1.1-2.9c0-1.1,0.4-2,1.1-2.8c0.8-0.8,1.7-1.2,2.9-1.2
		c1.1,0,2,0.4,2.8,1.2c0.8,0.8,1.2,1.7,1.2,2.8c0,1.2-0.4,2.1-1.2,2.9C870,458.9,869.1,459.3,868,459.3z M869.8,501.8h-3.7
		c-0.8,0-1.2-0.4-1.2-1.2v-32.7c0-0.5,0.1-0.8,0.2-0.9c0.2-0.2,0.5-0.2,0.9-0.2h3.7c0.8,0,1.2,0.4,1.2,1.2v32.7
		C871.1,501.4,870.6,501.8,869.8,501.8z"/>
	<path class="st0" d="M884.7,487.2v-15.7h-3.1c-0.8,0-1.2-0.4-1.2-1.2v-2.6c0-0.8,0.4-1.2,1.2-1.2h3.1v-7c0-0.5,0.1-0.8,0.2-0.9
		c0.2-0.2,0.5-0.2,0.9-0.2h3.7c0.5,0,0.8,0.1,0.9,0.2c0.2,0.2,0.2,0.5,0.2,0.9v7h11.9c0.5,0,0.8,0.1,0.9,0.2c0.2,0.2,0.2,0.5,0.2,1
		v2.5c0,0.5-0.1,0.8-0.2,0.9c-0.2,0.2-0.5,0.2-0.9,0.2h-11.9v15.2c0,3.7,0.6,6.3,1.7,7.9c1.1,1.6,3,2.3,5.7,2.3c1.7,0,3.3-0.3,4.6-1
		c0.3-0.2,0.6-0.3,0.9-0.3s0.5,0.3,0.6,1l0.6,2.6c0.1,0.7-0.1,1.2-0.6,1.5c-1.9,1.1-4.1,1.7-6.6,1.7
		C888.9,502.5,884.7,497.4,884.7,487.2z"/>
	<path class="st0" d="M928.4,500.5v-32.7c0-0.8,0.4-1.2,1.2-1.2h2c0.5,0,0.9,0.4,1.3,1.2l1,6.4c1-1.9,2.3-3.7,4-5.2
		c2.3-2.1,5.6-3.1,10-3.1c0.6,0,0.9,0.1,1,0.2c0.1,0.2,0.2,0.4,0.1,0.9l-0.6,3.7c-0.1,0.8-0.5,1.2-1.3,1.2c-4.1,0-7.2,1.2-9.5,3.5
		c-2.2,2.4-3.2,5.2-3.2,8.5v16.6c0,0.8-0.4,1.2-1.2,1.2h-3.7C928.8,501.8,928.4,501.4,928.4,500.5z"/>
	<path class="st0" d="M959.8,459.3c-1.2,0-2.1-0.4-2.9-1.1s-1.1-1.7-1.1-2.9c0-1.1,0.4-2,1.1-2.8c0.8-0.8,1.7-1.2,2.9-1.2
		c1.1,0,2,0.4,2.8,1.2c0.8,0.8,1.2,1.7,1.2,2.8c0,1.2-0.4,2.1-1.2,2.9C961.8,458.9,960.9,459.3,959.8,459.3z M961.7,501.8H958
		c-0.8,0-1.2-0.4-1.2-1.2v-32.7c0-0.5,0.1-0.8,0.2-0.9c0.2-0.2,0.5-0.2,0.9-0.2h3.7c0.8,0,1.2,0.4,1.2,1.2v32.7
		C962.9,501.4,962.5,501.8,961.7,501.8z"/>
	<path class="st0" d="M975.9,515l0.8-3.2c0.2-0.6,0.4-0.9,0.7-0.9c0.1,0,0.3,0.1,0.6,0.2c4,1.6,7.8,2.3,11.5,2.3
		c7.5,0,11.2-4.5,11.2-13.6V495c-0.6,1-1.2,1.9-1.9,2.9c-0.8,1-2.1,2-4.1,3c-2,1.1-4.1,1.6-6.3,1.6c-4.7,0-8.5-1.8-11.5-5.3
		c-2.9-3.5-4.4-7.8-4.4-13c0-5.2,1.5-9.5,4.4-13c3-3.5,6.8-5.3,11.5-5.3c3.7,0,6.6,1,8.9,3c1.7,1.4,3.2,3,4.4,4.8l0.7-5.8
		c0.4-0.8,0.8-1.2,1.3-1.2h1.9c0.8,0,1.2,0.4,1.2,1.2v31.3c0,13.1-5.5,19.7-16.4,19.7c-4.7,0-9.3-0.8-13.7-2.5
		C975.9,516.1,975.6,515.6,975.9,515z M989.5,497c3.2,0,5.9-1.3,7.9-3.8c2.1-2.5,3.2-5.5,3.2-9c0-3.5-1.1-6.5-3.2-9
		c-2.1-2.6-4.7-3.9-7.9-3.9c-3.3,0-6,1.2-8.1,3.7c-2.1,2.4-3.1,5.5-3.1,9.2c0,3.5,1,6.5,3.1,9C983.5,495.8,986.2,497,989.5,497z"/>
	<path class="st0" d="M1017.7,500.5V452c0-0.5,0.1-0.8,0.2-0.9c0.2-0.2,0.5-0.2,0.9-0.2h3.7c0.8,0,1.2,0.4,1.2,1.2v20.5
		c2.7-4.4,6.3-6.6,10.6-6.6c4.2,0,7.5,1.3,9.9,3.9c2.4,2.6,3.7,6.5,3.7,11.7v19c0,0.8-0.4,1.2-1.2,1.2h-3.7c-0.8,0-1.2-0.4-1.2-1.2
		V483c0-3.8-0.8-6.7-2.4-8.7s-3.8-3-6.6-3c-2.8,0-5,1.2-6.6,3.5c-1.7,2.3-2.5,5.1-2.5,8.6v17.1c0,0.8-0.4,1.2-1.2,1.2h-3.7
		C1018.1,501.8,1017.7,501.4,1017.7,500.5z"/>
	<path class="st0" d="M1058.7,487.2v-15.7h-3.1c-0.8,0-1.2-0.4-1.2-1.2v-2.6c0-0.8,0.4-1.2,1.2-1.2h3.1v-7c0-0.5,0.1-0.8,0.2-0.9
		c0.2-0.2,0.5-0.2,0.9-0.2h3.7c0.5,0,0.8,0.1,0.9,0.2c0.2,0.2,0.2,0.5,0.2,0.9v7h11.9c0.5,0,0.8,0.1,0.9,0.2c0.2,0.2,0.2,0.5,0.2,1
		v2.5c0,0.5-0.1,0.8-0.2,0.9c-0.2,0.2-0.5,0.2-0.9,0.2h-11.9v15.2c0,3.7,0.6,6.3,1.7,7.9c1.1,1.6,3,2.3,5.7,2.3c1.7,0,3.3-0.3,4.6-1
		c0.3-0.2,0.6-0.3,0.9-0.3s0.5,0.3,0.6,1l0.6,2.6c0.1,0.7-0.1,1.2-0.6,1.5c-1.9,1.1-4.1,1.7-6.6,1.7
		C1062.9,502.5,1058.7,497.4,1058.7,487.2z"/>
</g>
</svg>
