<svg width="114" height="47" viewBox="0 0 114 47" fill="none" xmlns="http://www.w3.org/2000/svg">
<path d="M3.2793 33.0542V14.7684H5.79309V33.0542H3.2793Z" fill="#004E9D"/>
<path d="M21.724 14.7684H24.1137V33.0542H21.3206L11.8757 18.2343V33.0542H9.48608V14.7684H12.4344L21.724 29.5781V14.7684Z" fill="#004E9D"/>
<path d="M39.8895 14.7684H42.2792V33.0542H39.4861L30.0413 18.2343V33.0542H27.6516V14.7684H30.5999L39.8895 29.5883V14.7684Z" fill="#004E9D"/>
<path d="M52.9966 33.0542H50.4828V16.9282H44.2759V14.7582H59.2035V16.9282H52.9966V33.0542Z" fill="#004E9D"/>
<path d="M63.7965 17.0104V22.5435H73.9551V24.6621H63.7965V30.8842H74.9793V33.0542H61.3655V14.7684H74.7827V17.0104H63.7965Z" fill="#004E9D"/>
<path d="M93.1964 20.2501H90.7861C90.5068 19.0776 89.9378 18.1315 89.1413 17.4424C88.293 16.7533 87.1447 16.4242 85.6551 16.4242C83.8551 16.4242 82.3964 17.0619 81.2688 18.3166C80.1619 19.5918 79.6033 21.5253 79.6033 24.1273C79.6033 26.2665 80.1206 28.0045 81.1137 29.3312C82.1171 30.6785 83.6275 31.347 85.6033 31.347C87.4551 31.347 88.8309 30.6579 89.8137 29.2592C90.3309 28.5188 90.7137 27.552 90.9413 26.3282H93.3826C93.1757 28.2617 92.4619 29.8763 91.2309 31.1722C89.7723 32.756 87.7964 33.5479 85.3344 33.5479C83.1826 33.5479 81.3826 32.8897 79.9447 31.6144C78.0206 29.9072 77.0688 27.2743 77.0688 23.7365C77.0688 21.0317 77.7826 18.8102 79.2206 17.103C80.7619 15.2107 82.9137 14.2748 85.6344 14.2748C87.9723 14.2748 89.793 14.8918 91.0757 16.1157C92.3482 17.319 93.0723 18.6868 93.1964 20.2501Z" fill="#004E9D"/>
<path d="M108.207 22.3172V14.7684H110.721V33.0542H108.207V24.5078H98.6381V33.0542H96.1243V14.7684H98.6381V22.3172H108.207Z" fill="#004E9D"/>
<path d="M114 3.08533H0V4.31946H114V3.08533Z" fill="#004E9D"/>
<path d="M114 43.5033H0V44.7374H114V43.5033Z" fill="#004E9D"/>
</svg>
